<?xml version="1.0" encoding="utf-8"?>
<!-- Generator: Adobe Illustrator 22.1.0, SVG Export Plug-In . SVG Version: 6.00 Build 0)  -->
<svg version="1.1" id="Layer_1" xmlns="http://www.w3.org/2000/svg" xmlns:xlink="http://www.w3.org/1999/xlink" x="0px" y="0px"
	 viewBox="0 0 300 305" style="enable-background:new 0 0 300 305;" xml:space="preserve">
<style type="text/css">
	.st0{fill:none;stroke:#AAAAAA;stroke-width:2.836;stroke-linecap:round;stroke-linejoin:round;stroke-dasharray:9.453,9.453;}
	.st1{fill:#B5B5B5;}
	.st2{fill:url(#SVGID_1_);}
	.st3{fill:#FFFFFF;}
	.st4{opacity:0.519;}
	.st5{fill:#F1F1F1;}
	.st6{display:none;}
	.st7{display:inline;fill:url(#SVGID_2_);}
	.st8{display:inline;fill:#FFFFFF;}
	.st9{display:inline;}
	.st10{fill:url(#d_1_);}
	.st11{fill:url(#SVGID_3_);}
	.st12{fill:url(#SVGID_4_);}
	.st13{fill-opacity:0.26;}
	.st14{display:inline;fill:url(#SVGID_5_);}
	.st15{fill:url(#e_1_);}
	.st16{fill:url(#SVGID_6_);}
	.st17{fill:#EBEBEB;}
	.st18{display:inline;fill:url(#SVGID_7_);}
	.st19{fill:url(#f_1_);}
	.st20{font-family:'MyriadPro-Regular';}
	.st21{font-size:12px;}
</style>
<g>
	<path class="st0" d="M153.6,244.8c49.2,0,89.1-39.7,89.1-88.6c0-10.9-2-21.4-5.6-31c-12.6-33.6-45.2-57.6-83.5-57.6
		c-49.2,0-89.1,39.7-89.1,88.6S104.4,244.8,153.6,244.8z"/>
	<path class="st1" d="M95.4,90.7l-6.5,23.7c-0.3,0.9-1.2,1.5-2.1,1.2c-0.3-0.1-0.5-0.2-0.7-0.4l-16.4-14.7c-0.7-0.6-0.8-1.7-0.1-2.4
		c0.2-0.2,0.4-0.4,0.7-0.5l22.9-9c0.9-0.3,1.9,0.1,2.2,1C95.5,90,95.5,90.4,95.4,90.7z M230,113.4l-21.6-11.7
		c-0.8-0.5-1.1-1.5-0.7-2.3c0.1-0.2,0.3-0.4,0.5-0.6l18-12.6c0.8-0.5,1.8-0.4,2.4,0.4c0.2,0.2,0.3,0.5,0.3,0.7l3.6,24.3
		c0.1,0.9-0.5,1.8-1.4,2C230.7,113.7,230.4,113.6,230,113.4L230,113.4z M129.5,240.7l23.3-7.8c0.9-0.3,1.9,0.2,2.2,1.1
		c0.1,0.3,0.1,0.5,0.1,0.8l-3.1,21.8c-0.1,0.9-1,1.6-1.9,1.5c-0.3,0-0.5-0.1-0.7-0.3l-20.2-13.9c-0.8-0.5-1-1.6-0.4-2.4
		C128.8,241.1,129.1,240.8,129.5,240.7L129.5,240.7z"/>
	<g transform="translate(204 148)">
		
			<linearGradient id="SVGID_1_" gradientUnits="userSpaceOnUse" x1="-370.9174" y1="243.9919" x2="-369.1865" y2="242.8005" gradientTransform="matrix(82.1982 0 0 -104.3209 30472.377 25472.0313)">
			<stop  offset="0" style="stop-color:#FB542B"/>
			<stop  offset="1" style="stop-color:#5118DD"/>
		</linearGradient>
		<path class="st2" d="M-18.5,3.6c0-1.8,1.4-3.2,3.2-3.2c0,0,0,0,0,0h75.7c1.8,0,3.2,1.5,3.2,3.2v97.8c0,1.8-1.4,3.2-3.2,3.2
			c0,0,0,0,0,0h-75.7c-1.8,0-3.2-1.4-3.2-3.2V3.6z"/>
		<path class="st3" d="M-15.2,6.5c0-1,0.8-1.8,1.8-1.8h71.9c1,0,1.8,0.8,1.8,1.8v81.1c0,1-0.8,1.8-1.8,1.8h-71.9
			c-1,0-1.8-0.8-1.8-1.8c0,0,0,0,0,0V6.5L-15.2,6.5z"/>
		<g transform="translate(9.554 15.05)" class="st4">
			<path class="st5" d="M1.6-1h37.8c0.2,0,0.3,0.1,0.3,0.3v2.6c0,0.2-0.1,0.3-0.3,0.3H1.6c-0.2,0-0.3-0.1-0.3-0.3v-2.6
				C1.3-0.8,1.4-1,1.6-1z"/>
			<path class="st5" d="M1.6,10.8h36.8c0.2,0,0.3,0.1,0.3,0.3v2.6c0,0.2-0.1,0.3-0.3,0.3H1.6c-0.2,0-0.3-0.1-0.3-0.3v-2.6
				C1.3,11,1.4,10.8,1.6,10.8z"/>
			<path class="st5" d="M-16.8,55.6h52.6c0.2,0,0.3,0.1,0.3,0.3v2.6c0,0.2-0.1,0.3-0.3,0.3h-52.6c-0.2,0-0.3-0.1-0.3-0.3v-2.6
				C-17.1,55.7-17,55.6-16.8,55.6z"/>
			<path class="st5" d="M-19,25.3h63.3c0.2,0,0.3,0.1,0.3,0.3v6.2c0,0.2-0.1,0.3-0.3,0.3H-19c-0.2,0-0.3-0.1-0.3-0.3v-6.2
				C-19.3,25.5-19.1,25.3-19,25.3z"/>
			<path class="st5" d="M-19.1,35.5h63.4c0.2,0,0.3,0.1,0.3,0.3v13.5c0,0.2-0.1,0.3-0.3,0.3h-63.4c-0.2,0-0.3-0.1-0.3-0.3V35.8
				C-19.4,35.6-19.3,35.5-19.1,35.5z"/>
			<path class="st5" d="M1.6,5.7h42.9c0.2,0,0.3,0.1,0.3,0.3v1.2c0,0.2-0.1,0.3-0.3,0.3H1.6c-0.2,0-0.3-0.1-0.3-0.3V6
				C1.3,5.8,1.4,5.7,1.6,5.7z"/>
			<path class="st5" d="M-19.1,20.2h61.6c0.2,0,0.3,0.1,0.3,0.3v1.2c0,0.2-0.1,0.3-0.3,0.3h-61.6c-0.2,0-0.3-0.1-0.3-0.3v-1.2
				C-19.4,20.3-19.3,20.2-19.1,20.2z"/>
			<path class="st5" d="M-16.8,62.2h59.5c0.2,0,0.3,0.1,0.3,0.3v1.2c0,0.2-0.1,0.3-0.3,0.3h-59.5c-0.2,0-0.3-0.1-0.3-0.3v-1.2
				C-17.1,62.4-17,62.2-16.8,62.2z"/>
		</g>
		<ellipse class="st3" cx="23" cy="96.2" rx="3.4" ry="3.4"/>
		<g transform="translate(11.672 15.506)" class="st6">
			
				<linearGradient id="SVGID_2_" gradientUnits="userSpaceOnUse" x1="-372.5526" y1="223.68" x2="-371.5526" y2="223.68" gradientTransform="matrix(13.9445 0 0 -16.3718 5175.4692 3669.2334)">
				<stop  offset="0" style="stop-color:#FF5500"/>
				<stop  offset="0.4099" style="stop-color:#FF5500"/>
				<stop  offset="0.582" style="stop-color:#FF2000"/>
				<stop  offset="1" style="stop-color:#FF2000"/>
			</linearGradient>
			<path class="st7" d="M-6.2,2.9L-5.8,2c0,0-0.5-0.5-1.1-1.1s-1.8-0.2-1.8-0.2L-10.1-1h-5l-1.4,1.6c0,0-1.3-0.3-1.8,0.2
				S-19.5,2-19.5,2l0.4,0.9l-0.5,1.4c0,0,1.4,5.4,1.6,6.1c0.3,1.3,0.6,1.8,1.5,2.5c0.9,0.7,2.6,1.8,2.9,2c0.3,0.2,0.6,0.5,0.9,0.5
				c0.3,0,0.7-0.3,0.9-0.5c0.3-0.2,2-1.3,2.9-2c0.9-0.7,1.2-1.2,1.5-2.5c0.2-0.7,1.6-6.1,1.6-6.1S-6.2,2.9-6.2,2.9z"/>
			<path class="st8" d="M-9.1,1.7c0,0,1.8,2.2,1.8,2.7c0,0.5-0.2,0.6-0.5,0.8l-1.4,1.5C-9.2,6.8-9.5,7-9.3,7.4
				c0.2,0.4,0.4,0.9,0.1,1.3c-0.3,0.5-0.7,0.8-1,0.8c-0.3-0.1-1-0.4-1.2-0.6c-0.2-0.2-1-0.8-1-1.1c0-0.2,0.8-0.7,1-0.8
				c0.2-0.1,0.8-0.5,0.9-0.6c0-0.2,0-0.2-0.2-0.6C-11,5.5-11.4,5-11.3,4.6c0.1-0.3,0.6-0.5,1.1-0.7C-9.9,3.8-9,3.5-8.9,3.4
				c0.1,0,0.1-0.1-0.2-0.1c-0.3,0-1.2-0.1-1.6,0s-1.1,0.3-1.1,0.4c-0.1,0.1-0.1,0.1,0,0.4c0.1,0.3,0.3,1.8,0.4,2
				c0,0.3,0.1,0.4-0.2,0.5c-0.3,0.1-0.7,0.2-0.9,0.2c-0.2,0-0.6-0.1-0.9-0.2c-0.3-0.1-0.2-0.2-0.2-0.5c0-0.3,0.3-1.7,0.4-2
				c0.1-0.3,0-0.3,0-0.4c-0.1-0.1-0.7-0.3-1.1-0.4c-0.4-0.1-1.3,0-1.6,0c-0.3,0-0.3,0.1-0.2,0.1c0.1,0,0.9,0.3,1.3,0.5
				c0.4,0.2,1,0.3,1.1,0.7c0.1,0.3-0.3,0.8-0.5,1.2c-0.2,0.4-0.2,0.4-0.2,0.6c0,0.2,0.7,0.5,0.9,0.6c0.1,0.1,1,0.5,1,0.8
				c0,0.2-0.8,0.9-1,1.1c-0.2,0.2-0.9,0.5-1.2,0.6c-0.3,0.1-0.7-0.3-1-0.8c-0.3-0.5,0-1,0.1-1.3c0.2-0.4-0.1-0.6-0.2-0.7l-1.4-1.5
				C-17.8,5-18,4.8-18,4.4c0-0.5,1.8-2.7,1.8-2.7s1.6,0.3,1.8,0.3s0.7-0.2,1.1-0.3c0.4-0.1,0.7-0.1,0.7-0.1s0.3,0,0.7,0.1
				c0.4,0.1,0.9,0.3,1.1,0.3C-10.6,1.9-9.1,1.7-9.1,1.7z M-10.5,10.2c0.1,0.1,0,0.2-0.1,0.3c-0.5,0.4-1.1,0.8-1.6,1.3
				c-0.1,0.1-0.3,0.3-0.5,0.3c-0.1,0-0.3-0.2-0.5-0.3c-0.5-0.4-1.1-0.9-1.6-1.3c-0.1-0.1-0.2-0.2-0.1-0.3c0.1-0.1,0.5-0.3,1-0.5
				c0.5-0.3,1.1-0.5,1.2-0.5c0.1,0,0.7,0.2,1.2,0.5C-10.9,9.9-10.6,10.1-10.5,10.2z"/>
			<g class="st9">
				
					<linearGradient id="d_1_" gradientUnits="userSpaceOnUse" x1="-370.0484" y1="199.5025" x2="-369.0699" y2="199.5025" gradientTransform="matrix(11.5736 0 0 -2.95 4264.6328 589.0068)">
					<stop  offset="0" style="stop-color:#FF452A"/>
					<stop  offset="1" style="stop-color:#FF2000"/>
				</linearGradient>
				<path id="d" class="st10" d="M-8.7,0.6L-10.1-1h-5l-1.4,1.6c0,0-1.3-0.3-1.8,0.2c0,0,1.7-0.2,2.2,0.8c0,0,1.6,0.3,1.8,0.3
					c0.2,0,0.7-0.2,1.1-0.3c0.4-0.1,0.7-0.1,0.7-0.1s0.3,0,0.7,0.1c0.4,0.1,0.9,0.3,1.1,0.3c0.2,0,1.8-0.3,1.8-0.3
					c0.6-0.9,2.2-0.8,2.2-0.8C-7.4,0.3-8.7,0.6-8.7,0.6"/>
			</g>
		</g>
	</g>
	
		<linearGradient id="SVGID_3_" gradientUnits="userSpaceOnUse" x1="-166.9575" y1="391.482" x2="-165.2266" y2="390.2907" gradientTransform="matrix(83.6845 0 0 -64.9955 14012.4551 25600.0781)">
		<stop  offset="0" style="stop-color:#FB542B"/>
		<stop  offset="1" style="stop-color:#5118DD"/>
	</linearGradient>
	<path class="st11" d="M38.8,146.4c0-1.4,1.1-2.5,2.5-2.5c0,0,0,0,0,0h78.7c1.4,0,2.5,1.1,2.5,2.5v62.5H38.8V146.4z"/>
	
		<linearGradient id="SVGID_4_" gradientUnits="userSpaceOnUse" x1="-167.1985" y1="401.2101" x2="-165.4676" y2="400.0187" gradientTransform="matrix(95.4787 0 0 10.3855 16000.1523 -3949.2432)">
		<stop  offset="0" style="stop-color:#FB542B"/>
		<stop  offset="1" style="stop-color:#5118DD"/>
	</linearGradient>
	<path class="st12" d="M34.1,215.1c-1.7,2.3-0.8,4.2,2.1,4.2h89.7c2.9,0,3.7-1.8,1.9-4l-5.3-6.4H38.8L34.1,215.1z"/>
	<path class="st13" d="M38.9,213.6c-1.4,1.5-0.9,2.8,1.2,2.8H122c2.1,0,2.5-1.2,1.1-2.6l-5-4.9H43.3L38.9,213.6L38.9,213.6z"/>
	<path class="st3" d="M42.2,149.9c0-1,0.8-1.8,1.8-1.8h73.3c1,0,1.8,0.8,1.8,1.8v49.5c0,1-0.8,1.8-1.8,1.8H44c-1,0-1.8-0.8-1.8-1.8
		V149.9z"/>
	<g transform="translate(54.98 158.052)" class="st4">
		<path class="st5" d="M14-0.5h38.5c0.2,0,0.3,0.1,0.3,0.3v2.6c0,0.2-0.1,0.3-0.3,0.3H14c-0.2,0-0.3-0.1-0.3-0.3v-2.6
			C13.7-0.4,13.9-0.5,14-0.5z"/>
		<path class="st5" d="M14,11.3h37.5c0.2,0,0.3,0.1,0.3,0.3v2.6c0,0.2-0.1,0.3-0.3,0.3H14c-0.2,0-0.3-0.1-0.3-0.3v-2.6
			C13.7,11.4,13.9,11.3,14,11.3z"/>
		<path class="st5" d="M-4.7,25.8h62.2c0.2,0,0.3,0.1,0.3,0.3v6.2c0,0.2-0.1,0.3-0.3,0.3H-4.7c-0.2,0-0.3-0.1-0.3-0.3v-6.2
			C-5,25.9-4.9,25.8-4.7,25.8z"/>
		<path class="st5" d="M14,6.1h43.7c0.2,0,0.3,0.1,0.3,0.3v1.2c0,0.2-0.1,0.3-0.3,0.3H14c-0.2,0-0.3-0.1-0.3-0.3V6.4
			C13.7,6.2,13.9,6.1,14,6.1z"/>
		<path class="st5" d="M-4.7,19.5h60.6c0.2,0,0.3,0.1,0.3,0.3V21c0,0.2-0.1,0.3-0.3,0.3H-4.7C-4.9,21.3-5,21.1-5,21v-1.2
			C-5,19.6-4.9,19.5-4.7,19.5z"/>
	</g>
	<g transform="translate(57.189 158.992)" class="st6">
		
			<linearGradient id="SVGID_5_" gradientUnits="userSpaceOnUse" x1="-212.555" y1="227.131" x2="-211.555" y2="227.131" gradientTransform="matrix(12.3955 0 0 -13.6427 2629.5164 3104.9172)">
			<stop  offset="0" style="stop-color:#FF5500"/>
			<stop  offset="0.4099" style="stop-color:#FF5500"/>
			<stop  offset="0.582" style="stop-color:#FF2000"/>
			<stop  offset="1" style="stop-color:#FF2000"/>
		</linearGradient>
		<path class="st14" d="M6.8,2.7l0.3-0.8c0,0-0.4-0.4-1-0.9C5.6,0.5,4.5,0.8,4.5,0.8L3.2-0.6h-4.5l-1.3,1.4c0,0-1.1-0.3-1.6,0.2
			c-0.5,0.5-1,0.9-1,0.9l0.3,0.8l-0.4,1.2c0,0,1.3,4.5,1.4,5.1c0.3,1.1,0.5,1.5,1.3,2.1c0.8,0.6,2.4,1.5,2.6,1.7
			c0.2,0.1,0.6,0.4,0.8,0.4c0.3,0,0.6-0.2,0.8-0.4c0.2-0.1,1.8-1.1,2.6-1.7s1-1,1.3-2.1c0.1-0.6,1.4-5.1,1.4-5.1S6.8,2.7,6.8,2.7z"
			/>
		<path class="st8" d="M4.1,1.6c0,0,1.6,1.9,1.6,2.3S5.6,4.4,5.4,4.6L4.1,5.8C4,5.9,3.8,6.1,3.9,6.4C4.1,6.7,4.3,7.1,4,7.5
			C3.8,7.9,3.4,8.2,3.2,8.2c-0.3,0-0.9-0.3-1.1-0.5C1.9,7.6,1.2,7,1.2,6.8c0-0.2,0.7-0.6,0.9-0.7c0.1-0.1,0.7-0.4,0.8-0.5
			c0-0.1,0-0.2-0.2-0.5c-0.2-0.3-0.5-0.7-0.4-1c0.1-0.3,0.6-0.4,0.9-0.6c0.4-0.1,1.1-0.4,1.2-0.4C4.4,3.1,4.3,3,4.1,3
			C3.8,3,3,2.9,2.7,3c-0.3,0.1-0.9,0.2-1,0.3c0,0.1-0.1,0.1,0,0.3C1.7,3.9,2,5.1,2,5.3c0,0.2,0.1,0.4-0.2,0.4C1.6,5.8,1.1,5.9,1,5.9
			c-0.1,0-0.6-0.1-0.8-0.1C-0.1,5.7,0,5.5,0,5.3c0-0.2,0.3-1.4,0.3-1.7c0-0.3,0-0.3,0-0.3c0-0.1-0.6-0.2-1-0.3C-1,2.9-1.8,3-2.1,3
			c-0.3,0-0.3,0.1-0.2,0.1c0.1,0,0.8,0.3,1.2,0.4c0.4,0.1,0.9,0.3,1,0.6c0.1,0.3-0.3,0.7-0.4,1c-0.2,0.3-0.2,0.4-0.2,0.5
			c0,0.1,0.6,0.5,0.8,0.5c0.1,0.1,0.9,0.5,0.9,0.7c0,0.2-0.7,0.7-0.9,0.9c-0.2,0.1-0.8,0.4-1.1,0.5c-0.3,0-0.7-0.2-0.9-0.6
			c-0.2-0.4,0-0.8,0.1-1.1C-1.8,6.1-2,5.9-2.1,5.8l-1.2-1.2c-0.2-0.2-0.4-0.3-0.4-0.7s1.6-2.3,1.6-2.3s1.4,0.2,1.6,0.2
			s0.6-0.1,1-0.3C0.8,1.5,1,1.5,1,1.5s0.2,0,0.6,0.1c0.4,0.1,0.8,0.3,1,0.3C2.8,1.9,4.1,1.6,4.1,1.6z M2.9,8.7C3,8.8,3,8.9,2.9,8.9
			c-0.5,0.3-1,0.7-1.5,1.1c-0.1,0.1-0.3,0.3-0.4,0.3c-0.1,0-0.3-0.2-0.4-0.3c-0.5-0.4-1-0.7-1.5-1.1C-1,8.9-1,8.8-0.9,8.7
			c0.1-0.1,0.4-0.2,0.9-0.4c0.4-0.2,1-0.4,1.1-0.4c0.1,0,0.6,0.2,1.1,0.4C2.5,8.5,2.8,8.7,2.9,8.7z"/>
		<g class="st9">
			
				<linearGradient id="e_1_" gradientUnits="userSpaceOnUse" x1="-209.7409" y1="198.116" x2="-208.7624" y2="198.116" gradientTransform="matrix(10.2882 0 0 -2.4582 2153.9282 487.6441)">
				<stop  offset="0" style="stop-color:#FF452A"/>
				<stop  offset="1" style="stop-color:#FF2000"/>
			</linearGradient>
			<path id="e" class="st15" d="M4.5,0.8L3.2-0.6h-4.5l-1.3,1.4c0,0-1.1-0.3-1.6,0.2c0,0,1.5-0.1,2,0.7c0,0,1.4,0.2,1.6,0.2
				s0.6-0.1,1-0.3C0.8,1.5,1,1.5,1,1.5s0.2,0,0.6,0.1c0.4,0.1,0.8,0.3,1,0.3c0.2,0,1.6-0.2,1.6-0.2c0.5-0.8,2-0.7,2-0.7
				C5.6,0.5,4.5,0.8,4.5,0.8"/>
		</g>
	</g>
	<g>
		
			<linearGradient id="SVGID_6_" gradientUnits="userSpaceOnUse" x1="-166.006" y1="391.9919" x2="-164.2751" y2="390.8005" gradientTransform="matrix(56.9527 0 0 -104.3209 9580.5566 40931.3477)">
			<stop  offset="0" style="stop-color:#FB542B"/>
			<stop  offset="1" style="stop-color:#5118DD"/>
		</linearGradient>
		<path class="st16" d="M124.5,25.9c0-3.1,2.5-5.6,5.6-5.6h45.7c3.1,0,5.6,2.5,5.6,5.6v93.1c0,3.1-2.5,5.6-5.6,5.6h-45.7
			c-3.1,0-5.6-2.5-5.6-5.6V25.9z"/>
		<path class="st3" d="M127.1,26.7c0-1.7,1.4-3.1,3.1-3.1c0,0,0,0,0,0h45.7c1.7,0,3.1,1.4,3.1,3.1v85.4c0,1.7-1.4,3.1-3.1,3.1
			c0,0,0,0,0,0h-45.7c-1.7,0-3.1-1.4-3.1-3.1V26.7L127.1,26.7z M133,118.6c0-0.5,0.4-0.9,0.9-0.9h38.2c0.5,0,0.9,0.4,0.9,0.9
			c0,0.5-0.4,0.9-0.9,0.9h-38.2C133.4,119.4,133,119,133,118.6C133,118.6,133,118.6,133,118.6L133,118.6z"/>
		<g transform="translate(148.22 21.109)">
			<g transform="translate(.179 .94)">
				<path class="st17" d="M4.6,11.9h15.8c0.3,0,0.5,0.2,0.5,0.5v2c0,0.3-0.2,0.5-0.5,0.5H4.6c-0.3,0-0.5-0.2-0.5-0.5v-2
					C4,12.1,4.3,11.9,4.6,11.9z"/>
				<path class="st17" d="M-13,27.3h31.2c0.3,0,0.5,0.2,0.5,0.5v2c0,0.3-0.2,0.5-0.5,0.5H-13c-0.3,0-0.5-0.2-0.5-0.5v-2
					C-13.5,27.5-13.3,27.3-13,27.3z"/>
				<path class="st17" d="M-13,73.4h31.2c0.3,0,0.5,0.2,0.5,0.5v2c0,0.3-0.2,0.5-0.5,0.5H-13c-0.3,0-0.5-0.2-0.5-0.5v-2
					C-13.5,73.7-13.3,73.4-13,73.4z"/>
				<path class="st17" d="M-13,40.9h36.3c0.3,0,0.5,0.2,0.5,0.5v5.4c0,0.3-0.2,0.5-0.5,0.5H-13c-0.3,0-0.5-0.2-0.5-0.5v-5.4
					C-13.5,41.2-13.3,40.9-13,40.9z"/>
				<path class="st17" d="M-13,51.2h36.3c0.3,0,0.5,0.2,0.5,0.5v12.2c0,0.3-0.2,0.5-0.5,0.5H-13c-0.3,0-0.5-0.2-0.5-0.5V51.7
					C-13.5,51.4-13.3,51.2-13,51.2z"/>
			</g>
			<path class="st17" d="M4.6,19h17.9c0.3,0,0.5,0.2,0.5,0.5V20c0,0.3-0.2,0.5-0.5,0.5H4.6c-0.3,0-0.5-0.2-0.5-0.5v-0.5
				C4.1,19.2,4.3,19,4.6,19z"/>
			<path class="st17" d="M4.6,23.7h17.9c0.3,0,0.5,0.2,0.5,0.5v0.5c0,0.3-0.2,0.5-0.5,0.5H4.6c-0.3,0-0.5-0.2-0.5-0.5v-0.5
				C4.1,23.9,4.3,23.7,4.6,23.7z"/>
			<path class="st17" d="M-13,34.2h35.3c0.3,0,0.5,0.2,0.5,0.5v0.5c0,0.3-0.2,0.5-0.5,0.5H-13c-0.3,0-0.5-0.2-0.5-0.5v-0.5
				C-13.5,34.4-13.2,34.2-13,34.2z"/>
			<path class="st17" d="M-13,80.4h35.3c0.3,0,0.5,0.2,0.5,0.5v0.5c0,0.3-0.2,0.5-0.5,0.5H-13c-0.3,0-0.5-0.2-0.5-0.5v-0.5
				C-13.5,80.6-13.2,80.4-13,80.4z"/>
			<g transform="translate(2.117)" class="st6">
				
					<linearGradient id="SVGID_7_" gradientUnits="userSpaceOnUse" x1="-304.7943" y1="365.014" x2="-303.7943" y2="365.014" gradientTransform="matrix(11.6209 0 0 -13.6427 3528.3191 4998.5522)">
					<stop  offset="0" style="stop-color:#FF5500"/>
					<stop  offset="0.4099" style="stop-color:#FF5500"/>
					<stop  offset="0.582" style="stop-color:#FF2000"/>
					<stop  offset="1" style="stop-color:#FF2000"/>
				</linearGradient>
				<path class="st18" d="M-2.5,15.2l0.3-0.8c0,0-0.4-0.4-0.9-0.9c-0.5-0.5-1.5-0.2-1.5-0.2l-1.2-1.4h-4.2l-1.2,1.4
					c0,0-1-0.3-1.5,0.2c-0.5,0.5-0.9,0.9-0.9,0.9l0.3,0.8l-0.4,1.2c0,0,1.2,4.5,1.3,5.1c0.3,1.1,0.5,1.5,1.2,2.1
					c0.8,0.6,1.6,1.1,2.4,1.7c0.2,0.1,0.5,0.4,0.8,0.4c0.3,0,0.6-0.2,0.8-0.4c0.8-0.5,1.6-1.1,2.4-1.7c0.8-0.6,1-1,1.2-2.1
					c0.1-0.6,1.3-5.1,1.3-5.1S-2.5,15.2-2.5,15.2z"/>
				<path class="st8" d="M-4.9,14.2c0,0,1.5,1.9,1.5,2.3c0,0.4-0.2,0.5-0.4,0.7l-1.1,1.2c-0.1,0.1-0.3,0.3-0.2,0.6
					c0.1,0.3,0.3,0.7,0.1,1.1s-0.6,0.7-0.8,0.6c-0.2,0-0.8-0.3-1-0.5c-0.2-0.1-0.9-0.7-0.9-0.9c0-0.2,0.7-0.6,0.8-0.7
					c0.1-0.1,0.7-0.4,0.7-0.5c0-0.1,0-0.2-0.2-0.5c-0.2-0.3-0.5-0.7-0.4-1c0.1-0.3,0.5-0.4,0.9-0.6c0.3-0.1,1-0.4,1.1-0.4
					c0.1,0,0.1-0.1-0.2-0.1c-0.3,0-1-0.1-1.3,0c-0.3,0.1-0.9,0.2-0.9,0.3c0,0.1-0.1,0.1,0,0.3c0,0.3,0.3,1.5,0.3,1.7
					c0,0.2,0.1,0.4-0.2,0.4c-0.2,0.1-0.6,0.1-0.8,0.1c-0.1,0-0.5-0.1-0.8-0.1c-0.2-0.1-0.2-0.2-0.2-0.4c0-0.2,0.3-1.4,0.3-1.7
					c0-0.3,0-0.3,0-0.3c0-0.1-0.6-0.2-0.9-0.3c-0.3-0.1-1,0-1.3,0c-0.3,0-0.3,0.1-0.2,0.1c0.1,0,0.8,0.3,1.1,0.4
					c0.3,0.1,0.8,0.3,0.9,0.6c0.1,0.3-0.3,0.7-0.4,1C-9.5,18-9.5,18-9.5,18.1c0,0.1,0.6,0.5,0.7,0.5c0.1,0.1,0.8,0.5,0.8,0.7
					c0,0.2-0.7,0.8-0.9,0.9c-0.2,0.1-0.8,0.4-1,0.5c-0.2,0-0.6-0.2-0.8-0.6c-0.2-0.4,0-0.8,0.1-1.1c0.1-0.3-0.1-0.5-0.2-0.6
					l-1.1-1.2c-0.2-0.2-0.4-0.3-0.4-0.7c0-0.4,1.5-2.3,1.5-2.3s1.3,0.2,1.5,0.2c0.2,0,0.6-0.1,0.9-0.3C-8.1,14-7.9,14-7.9,14
					s0.2,0,0.6,0.1c0.3,0.1,0.7,0.3,0.9,0.3C-6.2,14.4-4.9,14.2-4.9,14.2z M-6.1,21.2c0.1,0.1,0,0.2-0.1,0.2
					c-0.5,0.3-0.9,0.7-1.4,1.1c-0.1,0.1-0.3,0.3-0.4,0.3c-0.1,0-0.3-0.2-0.4-0.3c-0.1-0.1-1.3-1-1.4-1.1c-0.1-0.1-0.1-0.2,0-0.2
					c0.1-0.1,0.4-0.2,0.8-0.4c0.4-0.2,0.9-0.4,1-0.4c0.1,0,0.6,0.2,1,0.4C-6.4,21-6.2,21.2-6.1,21.2L-6.1,21.2z"/>
				<g class="st9">
					
						<linearGradient id="f_1_" gradientUnits="userSpaceOnUse" x1="-301.7927" y1="335.999" x2="-300.8141" y2="335.999" gradientTransform="matrix(9.6445 0 0 -2.4582 2898.1816 839.1204)">
						<stop  offset="0" style="stop-color:#FF452A"/>
						<stop  offset="1" style="stop-color:#FF2000"/>
					</linearGradient>
					<path id="f" class="st19" d="M-4.6,13.3l-1.2-1.4h-4.2l-1.2,1.4c0,0-1-0.3-1.5,0.2c0,0,1.4-0.1,1.9,0.7c0,0,1.3,0.2,1.5,0.2
						c0.2,0,0.6-0.1,0.9-0.3C-8.1,14-7.9,14-7.9,14s0.2,0,0.6,0.1c0.3,0.1,0.7,0.3,0.9,0.3c0.2,0,1.5-0.2,1.5-0.2
						c0.5-0.8,1.9-0.7,1.9-0.7C-3.5,13-4.6,13.3-4.6,13.3"/>
				</g>
			</g>
		</g>
	</g>
</g>
<text transform="matrix(1 0 0 1 131 36.9009)" class="st20 st21">1-VN</text>
<text transform="matrix(1 0 0 1 194.14 172.5114)" class="st20 st21">1-VN</text>
<text transform="matrix(1 0 0 1 42.2173 165.2641)" class="st20 st21">1-VN</text>
</svg>
