<?xml version="1.0" encoding="utf-8"?>
<!-- Generator: Adobe Illustrator 22.1.0, SVG Export Plug-In . SVG Version: 6.00 Build 0)  -->
<svg version="1.1" id="Layer_1" xmlns="http://www.w3.org/2000/svg" xmlns:xlink="http://www.w3.org/1999/xlink" x="0px" y="0px"
	 viewBox="0 0 99 78" style="enable-background:new 0 0 99 78;" xml:space="preserve">
<style type="text/css">
	.st0{fill:url(#SVGID_1_);}
	.st1{fill:url(#SVGID_2_);}
	.st2{fill-opacity:0.26;}
	.st3{fill:#FFFFFF;}
	.st4{opacity:0.519;}
	.st5{fill:#F1F1F1;}
	.st6{display:none;}
	.st7{display:inline;fill:url(#SVGID_3_);}
	.st8{display:inline;fill:#FFFFFF;}
	.st9{display:inline;}
	.st10{fill:url(#e_1_);}
	.st11{font-family:'MyriadPro-Regular';}
	.st12{font-size:12px;}
</style>
<g>
	
		<linearGradient id="SVGID_1_" gradientUnits="userSpaceOnUse" x1="-266.8552" y1="276.5255" x2="-265.868" y2="276.5255" gradientTransform="matrix(86.031 0 0 -67.239 22964.5781 18626.9199)">
		<stop  offset="0" style="stop-color:#392DD1"/>
		<stop  offset="1" style="stop-color:#A91B78"/>
	</linearGradient>
	<path class="st0" d="M6.2,3.5c0-2,1.6-3.5,3.5-3.5c0,0,0,0,0,0h78.9c2,0,3.5,1.6,3.5,3.5v63.7h-86L6.2,3.5L6.2,3.5z"/>
	
		<linearGradient id="SVGID_2_" gradientUnits="userSpaceOnUse" x1="-266.7091" y1="297.6032" x2="-266.914" y2="301.8088" gradientTransform="matrix(98.1414 0 0 10.744 26228.7129 -3130.3401)">
		<stop  offset="0" style="stop-color:#392DD1"/>
		<stop  offset="1" style="stop-color:#A91B78"/>
	</linearGradient>
	<path class="st1" d="M1.4,73.7C-0.3,76.1,0.6,78,3.6,78h92.1c3,0,3.8-1.9,2-4.1l-5.5-6.6h-86L1.4,73.7L1.4,73.7z"/>
	<path class="st2" d="M6.4,72.1C4.9,73.7,5.5,75,7.6,75h84.1c2.1,0,2.7-1.2,1.1-2.7l-5.1-5.1H10.9L6.4,72.1z"/>
	<path class="st3" d="M9.8,6.9c0-1.4,1.1-2.5,2.5-2.5c0,0,0,0,0,0h73.9c1.4,0,2.5,1.1,2.5,2.5v49.9c0,1.4-1.1,2.5-2.5,2.5
		c0,0,0,0,0,0H12.3c-1.4,0-2.5-1.1-2.5-2.5V6.9z"/>
	<g transform="translate(17.738 14.156)" class="st4">
		<path class="st5" d="M19.7,0H59c0.2,0,0.4,0.2,0.4,0.4v2.4c0,0.2-0.2,0.4-0.4,0.4H19.7c-0.2,0-0.4-0.2-0.4-0.4V0.4
			C19.2,0.2,19.4,0,19.7,0z"/>
		<path class="st5" d="M19.7,12.2H58c0.2,0,0.4,0.2,0.4,0.4v2.4c0,0.2-0.2,0.4-0.4,0.4H19.7c-0.2,0-0.4-0.2-0.4-0.4v-2.4
			C19.2,12.4,19.4,12.2,19.7,12.2z"/>
		<path class="st5" d="M0.4,27.2h63.7c0.2,0,0.4,0.2,0.4,0.4v6.2c0,0.2-0.2,0.4-0.4,0.4H0.4c-0.2,0-0.4-0.2-0.4-0.4v-6.2
			C0,27.4,0.2,27.2,0.4,27.2z"/>
		<path class="st5" d="M19.7,6.8h44.7c0.2,0,0.4,0.2,0.4,0.4v1c0,0.2-0.2,0.4-0.4,0.4H19.7c-0.2,0-0.4-0.2-0.4-0.4v-1
			C19.2,7,19.4,6.8,19.7,6.8z"/>
		<path class="st5" d="M0.4,20.7h62c0.2,0,0.4,0.2,0.4,0.4v1c0,0.2-0.2,0.4-0.4,0.4h-62c-0.2,0-0.4-0.2-0.4-0.4v-1
			C0,20.8,0.2,20.7,0.4,20.7z"/>
	</g>
	<g transform="translate(19.805 15.04)" class="st6">
		
			<linearGradient id="SVGID_3_" gradientUnits="userSpaceOnUse" x1="-268.6567" y1="250.1651" x2="-267.6567" y2="250.1651" gradientTransform="matrix(12.767 0 0 -13.991 3429.9404 3507.0554)">
			<stop  offset="0" style="stop-color:#FF5500"/>
			<stop  offset="0.4099" style="stop-color:#FF5500"/>
			<stop  offset="0.582" style="stop-color:#FF2000"/>
			<stop  offset="1" style="stop-color:#FF2000"/>
		</linearGradient>
		<path class="st7" d="M12.3,3.4l0.4-0.8c0,0-0.4-0.4-1-1S10,1.4,10,1.4L8.7,0H4.1L2.8,1.4c0,0-1.1-0.3-1.7,0.2c-0.5,0.5-1,1-1,1
			l0.3,0.8L0,4.6c0,0,1.3,4.7,1.5,5.2c0.3,1.1,0.5,1.6,1.4,2.1c0.9,0.6,2.4,1.6,2.7,1.7C5.8,13.7,6.1,14,6.4,14
			c0.3,0,0.6-0.3,0.9-0.4c0.3-0.1,1.8-1.1,2.7-1.7c0.9-0.6,1.1-1,1.4-2.1c0.2-0.6,1.5-5.2,1.5-5.2L12.3,3.4L12.3,3.4z"/>
		<path class="st8" d="M9.6,2.3c0,0,1.7,1.9,1.7,2.3c0,0.4-0.2,0.5-0.4,0.7L9.6,6.6C9.5,6.7,9.3,6.9,9.4,7.2
			c0.1,0.3,0.4,0.7,0.1,1.2C9.3,8.7,8.9,9,8.6,9c-0.3,0-0.9-0.3-1.1-0.5C7.3,8.4,6.5,7.8,6.5,7.6c0-0.2,0.7-0.6,0.9-0.7
			c0.1-0.1,0.8-0.4,0.8-0.6c0-0.1,0-0.2-0.2-0.5c-0.2-0.3-0.5-0.8-0.5-1c0.1-0.3,0.6-0.4,1-0.6c0.4-0.1,1.1-0.4,1.2-0.4
			c0.1,0,0.1-0.1-0.2-0.1c-0.3,0-1.1-0.1-1.4,0c-0.4,0.1-1,0.2-1,0.3C7.1,4.1,7,4.1,7.1,4.3C7.1,4.6,7.4,5.8,7.4,6
			c0,0.2,0.1,0.4-0.2,0.4C7,6.5,6.5,6.6,6.4,6.6c-0.1,0-0.6-0.1-0.8-0.2C5.3,6.4,5.3,6.3,5.4,6c0-0.2,0.3-1.5,0.3-1.7
			c0.1-0.3,0-0.3,0-0.3C5.6,3.9,5,3.8,4.6,3.7s-1.2,0-1.4,0C2.9,3.7,2.9,3.8,3,3.8s0.8,0.3,1.2,0.4c0.4,0.1,0.9,0.3,1,0.6
			c0.1,0.3-0.3,0.7-0.5,1C4.6,6.2,4.5,6.2,4.6,6.3c0,0.1,0.6,0.5,0.8,0.6C5.5,7,6.2,7.4,6.2,7.6c0,0.2-0.7,0.8-0.9,0.9
			C5,8.6,4.4,8.9,4.2,9C3.9,9,3.5,8.7,3.2,8.3C3,7.9,3.2,7.5,3.4,7.2c0.1-0.3-0.1-0.5-0.2-0.6L1.9,5.3C1.7,5.1,1.5,5,1.5,4.6
			c0-0.4,1.7-2.3,1.7-2.3s1.4,0.3,1.6,0.3c0.2,0,0.6-0.2,1-0.3c0.4-0.1,0.6-0.1,0.6-0.1s0.3,0,0.6,0.1c0.4,0.1,0.8,0.3,1,0.3
			C8.2,2.5,9.6,2.3,9.6,2.3z M8.4,9.5c0.1,0.1,0,0.2-0.1,0.2c-0.1,0.1-1.4,1-1.5,1.1s-0.3,0.3-0.4,0.3c-0.1,0-0.3-0.2-0.4-0.3
			c-0.5-0.4-1-0.7-1.5-1.1C4.4,9.7,4.3,9.6,4.4,9.5c0.1-0.1,0.4-0.2,0.9-0.4c0.4-0.2,1-0.4,1.1-0.4c0.1,0,0.6,0.2,1.1,0.4
			C7.9,9.3,8.3,9.5,8.4,9.5z"/>
		<g class="st9">
			
				<linearGradient id="e_1_" gradientUnits="userSpaceOnUse" x1="-264.3046" y1="185.1264" x2="-263.3261" y2="185.1264" gradientTransform="matrix(10.597 0 0 -2.521 2802.1497 467.9641)">
				<stop  offset="0" style="stop-color:#FF452A"/>
				<stop  offset="1" style="stop-color:#FF2000"/>
			</linearGradient>
			<path id="e" class="st10" d="M10,1.4L8.7,0H4.1L2.8,1.4c0,0-1.1-0.3-1.7,0.2c0,0,1.5-0.1,2.1,0.7c0,0,1.4,0.3,1.6,0.3
				c0.2,0,0.6-0.2,1-0.3c0.4-0.1,0.6-0.1,0.6-0.1s0.3,0,0.6,0.1c0.4,0.1,0.8,0.3,1,0.3c0.2,0,1.6-0.3,1.6-0.3
				c0.5-0.8,2.1-0.7,2.1-0.7C11.1,1.1,10,1.4,10,1.4"/>
		</g>
	</g>
</g>
<text transform="matrix(1 0 0 1 12 20)" class="st11 st12">1-VN</text>
</svg>
