<?xml version="1.0" encoding="utf-8"?>
<!-- Generator: Adobe Illustrator 22.1.0, SVG Export Plug-In . SVG Version: 6.00 Build 0)  -->
<svg version="1.1" id="Layer_1" xmlns="http://www.w3.org/2000/svg" xmlns:xlink="http://www.w3.org/1999/xlink" x="0px" y="0px"
	 viewBox="0 0 84 90" style="enable-background:new 0 0 84 90;" xml:space="preserve">
<style type="text/css">
	.st0{fill:url(#SVGID_1_);}
	.st1{fill:#FFFFFF;}
	.st2{opacity:0.519;}
	.st3{fill:#F1F1F1;}
	.st4{display:none;}
	.st5{display:inline;fill:url(#SVGID_2_);}
	.st6{display:inline;fill:#FFFFFF;}
	.st7{display:inline;}
	.st8{fill:url(#d_1_);}
	.st9{fill:url(#SVGID_3_);}
	.st10{fill:#EBEBEB;}
	.st11{display:inline;fill:url(#SVGID_4_);}
	.st12{fill:url(#f_1_);}
	.st13{font-family:'MyriadPro-Regular';}
	.st14{font-size:12px;}
	.st15{font-size:8px;}
</style>
<g>
	
		<linearGradient id="SVGID_1_" gradientUnits="userSpaceOnUse" x1="-273.067" y1="283.3156" x2="-272.0799" y2="283.3156" gradientTransform="matrix(70.545 0 0 -88.809 19263.9648 25205.375)">
		<stop  offset="0" style="stop-color:#392DD1"/>
		<stop  offset="1" style="stop-color:#A91B78"/>
	</linearGradient>
	<path class="st0" d="M0,3.8C0,1.7,1.7,0,3.8,0h63c2.1,0,3.8,1.7,3.8,3.8v81.3c0,2.1-1.7,3.8-3.8,3.8h-63C1.7,88.8,0,87.1,0,85V3.8z
		"/>
	<path class="st1" d="M2.9,5.7c0-1.1,0.9-2.1,2.1-2.1h60.6c1.1,0,2.1,0.9,2.1,2.1v67.9c0,1.1-0.9,2.1-2.1,2.1H5
		c-1.1,0-2.1-0.9-2.1-2c0,0,0,0,0,0L2.9,5.7L2.9,5.7z"/>
	<g transform="translate(7.455 11.647)" class="st2">
		<path class="st3" d="M18.1,0h32.3c0.2,0,0.3,0.2,0.3,0.3v2c0,0.2-0.2,0.3-0.3,0.3H18.1c-0.2,0-0.3-0.2-0.3-0.3v-2
			C17.8,0.2,17.9,0,18.1,0z"/>
		<path class="st3" d="M18.1,10h31.4c0.2,0,0.3,0.2,0.3,0.3v2c0,0.2-0.2,0.3-0.3,0.3H18.1c-0.2,0-0.3-0.2-0.3-0.3v-2
			C17.8,10.2,17.9,10,18.1,10z"/>
		<path class="st3" d="M2.3,48.2h45c0.2,0,0.3,0.2,0.3,0.3v2c0,0.2-0.2,0.3-0.3,0.3h-45c-0.2,0-0.3-0.2-0.3-0.3v-2
			C2,48.3,2.2,48.2,2.3,48.2z"/>
		<path class="st3" d="M0.5,22.4h54.1c0.2,0,0.3,0.2,0.3,0.3v5.1c0,0.2-0.2,0.3-0.3,0.3H0.5c-0.2,0-0.3-0.2-0.3-0.3v-5.1
			C0.1,22.5,0.3,22.4,0.5,22.4z"/>
		<path class="st3" d="M0.3,31h54.2c0.2,0,0.3,0.2,0.3,0.3v11.3c0,0.2-0.2,0.3-0.3,0.3H0.3C0.2,43,0,42.8,0,42.6V31.3
			C0,31.2,0.2,31,0.3,31z"/>
		<path class="st3" d="M18.1,5.6h36.6c0.2,0,0.3,0.2,0.3,0.3v0.9c0,0.2-0.2,0.3-0.3,0.3H18.1c-0.2,0-0.3-0.2-0.3-0.3V6
			C17.8,5.8,17.9,5.6,18.1,5.6z"/>
		<path class="st3" d="M0.3,18H53c0.2,0,0.3,0.2,0.3,0.3v0.9c0,0.2-0.2,0.3-0.3,0.3H0.3c-0.2,0-0.3-0.2-0.3-0.3v-0.9
			C0,18.2,0.2,18,0.3,18z"/>
		<path class="st3" d="M2.3,53.8h50.9c0.2,0,0.3,0.2,0.3,0.3V55c0,0.2-0.2,0.3-0.3,0.3H2.3C2.2,55.3,2,55.2,2,55v-0.9
			C2,53.9,2.2,53.8,2.3,53.8z"/>
	</g>
	<ellipse class="st1" cx="35.6" cy="81.5" rx="2.9" ry="2.9"/>
	<g transform="translate(9.098 12)" class="st4">
		
			<linearGradient id="SVGID_2_" gradientUnits="userSpaceOnUse" x1="-262.7795" y1="259.5892" x2="-261.7795" y2="259.5892" gradientTransform="matrix(11.879 0 0 -13.946 3121.5583 3627.2043)">
			<stop  offset="0" style="stop-color:#FF5500"/>
			<stop  offset="0.4099" style="stop-color:#FF5500"/>
			<stop  offset="0.582" style="stop-color:#FF2000"/>
			<stop  offset="1" style="stop-color:#FF2000"/>
		</linearGradient>
		<path class="st5" d="M11.5,3.3l0.3-0.8c0,0-0.4-0.4-0.9-1c-0.5-0.5-1.6-0.2-1.6-0.2L8.1,0H3.8L2.6,1.4c0,0-1.1-0.3-1.6,0.2
			c-0.5,0.5-0.9,1-0.9,1l0.3,0.8L0,4.5c0,0,1.2,4.6,1.4,5.2c0.3,1.1,0.5,1.5,1.3,2.1c0.8,0.6,2.3,1.5,2.5,1.7
			c0.2,0.1,0.5,0.4,0.8,0.4c0.3,0,0.6-0.3,0.8-0.4c0.2-0.1,1.7-1.1,2.5-1.7c0.8-0.6,1-1,1.3-2.1c0.1-0.6,1.4-5.2,1.4-5.2L11.5,3.3
			L11.5,3.3z"/>
		<path class="st6" d="M9,2.3c0,0,1.6,1.9,1.6,2.3c0,0.4-0.2,0.5-0.4,0.7L8.9,6.5C8.8,6.7,8.6,6.8,8.7,7.2c0.1,0.3,0.3,0.7,0.1,1.1
			C8.6,8.7,8.3,9,8,8.9c-0.2,0-0.8-0.3-1-0.5C6.8,8.3,6.1,7.8,6.1,7.6c0-0.2,0.7-0.6,0.8-0.7C7,6.8,7.6,6.5,7.6,6.3
			c0-0.1,0-0.2-0.2-0.5C7.3,5.5,7,5.1,7,4.8C7.1,4.5,7.6,4.4,8,4.2c0.4-0.1,1-0.4,1.1-0.4c0.1,0,0.1-0.1-0.2-0.1c-0.3,0-1-0.1-1.3,0
			C7.2,3.7,6.7,3.9,6.6,4S6.5,4,6.6,4.3c0,0.3,0.3,1.5,0.3,1.7c0,0.2,0.1,0.4-0.2,0.4C6.5,6.5,6.1,6.6,5.9,6.6
			c-0.1,0-0.5-0.1-0.8-0.1C4.9,6.4,5,6.2,5,6c0-0.2,0.3-1.5,0.3-1.7c0-0.3,0-0.3,0-0.3c0-0.1-0.6-0.2-0.9-0.3C4,3.6,3.3,3.7,3,3.7
			c-0.3,0-0.3,0.1-0.2,0.1s0.8,0.3,1.1,0.4c0.4,0.1,0.9,0.3,0.9,0.6c0.1,0.3-0.3,0.7-0.4,1C4.2,6.2,4.2,6.2,4.2,6.3
			c0,0.1,0.6,0.5,0.7,0.6C5.1,7,5.8,7.3,5.8,7.6c0,0.2-0.7,0.8-0.9,0.9c-0.2,0.1-0.8,0.4-1,0.5C3.6,9,3.2,8.7,3,8.3
			C2.8,7.9,3,7.5,3.1,7.2C3.3,6.8,3,6.7,2.9,6.5L1.8,5.3C1.6,5.1,1.4,5,1.4,4.6s1.6-2.3,1.6-2.3s1.3,0.3,1.5,0.3
			c0.2,0,0.6-0.1,0.9-0.3c0.4-0.1,0.6-0.1,0.6-0.1s0.2,0,0.6,0.1c0.4,0.1,0.7,0.3,0.9,0.3C7.6,2.5,9,2.3,9,2.3L9,2.3z M7.8,9.5
			c0.1,0.1,0,0.2-0.1,0.2c-0.1,0.1-1.3,1-1.4,1.1c-0.1,0.1-0.3,0.3-0.4,0.3c-0.1,0-0.3-0.2-0.4-0.3c-0.5-0.4-0.9-0.7-1.4-1.1
			C4.1,9.7,4,9.6,4.1,9.5c0.1-0.1,0.4-0.2,0.8-0.4c0.4-0.2,0.9-0.4,1-0.4c0.1,0,0.6,0.2,1,0.4C7.4,9.3,7.7,9.5,7.8,9.5L7.8,9.5z"/>
		<g class="st7">
			
				<linearGradient id="d_1_" gradientUnits="userSpaceOnUse" x1="-257.9804" y1="196.3015" x2="-257.0018" y2="196.3015" gradientTransform="matrix(9.859 0 0 -2.513 2544.6501 494.5621)">
				<stop  offset="0" style="stop-color:#FF452A"/>
				<stop  offset="1" style="stop-color:#FF2000"/>
			</linearGradient>
			<path id="d" class="st8" d="M9.3,1.4L8.1,0H3.8L2.6,1.4c0,0-1.1-0.3-1.6,0.2c0,0,1.4-0.1,1.9,0.7c0,0,1.3,0.3,1.5,0.3
				S5,2.4,5.3,2.2c0.4-0.1,0.6-0.1,0.6-0.1s0.2,0,0.6,0.1c0.4,0.1,0.7,0.3,0.9,0.3C7.6,2.5,9,2.3,9,2.3c0.5-0.8,1.9-0.7,1.9-0.7
				C10.4,1.1,9.3,1.4,9.3,1.4"/>
		</g>
	</g>
	
		<linearGradient id="SVGID_3_" gradientUnits="userSpaceOnUse" x1="-269.8496" y1="283.1136" x2="-268.2728" y2="282.1136" gradientTransform="matrix(37.788 0 0 -68.852 10236.2764 19518.6738)">
		<stop  offset="0" style="stop-color:#392DD1"/>
		<stop  offset="1" style="stop-color:#A91B78"/>
	</linearGradient>
	<path class="st9" d="M46,26.1c0-2.8,2.3-5.1,5.1-5.1h27.6c2.8,0,5.1,2.3,5.1,5.1c0,0,0,0,0,0v58.7c0,2.8-2.3,5.1-5.1,5.1H51.1
		c-2.8,0-5.1-2.3-5.1-5.1c0,0,0,0,0,0V26.1z"/>
	<path class="st1" d="M47.7,26c0-1.5,1.2-2.8,2.8-2.8h28.9c1.5,0,2.8,1.2,2.8,2.8c0,0,0,0,0,0v54.8c0,1.5-1.2,2.8-2.8,2.8H50.5
		c-1.5,0-2.8-1.2-2.8-2.8c0,0,0,0,0,0V26L47.7,26z M51.6,85.9c0-0.3,0.3-0.6,0.6-0.6h25.4c0.3,0,0.6,0.3,0.6,0.6
		c0,0.3-0.3,0.6-0.6,0.6H52.2C51.9,86.5,51.6,86.2,51.6,85.9z"/>
	<g transform="translate(52.768 29.465)">
		<g transform="translate(.108 .564)">
			<path class="st10" d="M12.1,0h10.2c0.3,0,0.5,0.2,0.5,0.5v1.1c0,0.3-0.2,0.5-0.5,0.5H12.1c-0.3,0-0.5-0.2-0.5-0.5V0.5
				C11.6,0.2,11.8,0,12.1,0z"/>
			<path class="st10" d="M0.5,10.2h20.4c0.3,0,0.5,0.2,0.5,0.5v1.1c0,0.3-0.2,0.5-0.5,0.5H0.5c-0.3,0-0.5-0.2-0.5-0.5v-1.1
				C0,10.4,0.2,10.2,0.5,10.2z"/>
			<path class="st10" d="M0.5,40.6h20.4c0.3,0,0.5,0.2,0.5,0.5v1.1c0,0.3-0.2,0.5-0.5,0.5H0.5c-0.3,0-0.5-0.2-0.5-0.5v-1.1
				C0,40.8,0.2,40.6,0.5,40.6z"/>
			<path class="st10" d="M0.5,19.2h23.8c0.3,0,0.5,0.2,0.5,0.5V23c0,0.3-0.2,0.5-0.5,0.5H0.5C0.2,23.4,0,23.2,0,23v-3.3
				C0,19.4,0.2,19.2,0.5,19.2z"/>
			<path class="st10" d="M0.5,26h23.8c0.3,0,0.5,0.2,0.5,0.5v7.8c0,0.3-0.2,0.5-0.5,0.5H0.5c-0.3,0-0.5-0.2-0.5-0.5v-7.8
				C0,26.2,0.2,26,0.5,26z"/>
		</g>
		<path class="st10" d="M12.1,4.7h11.7c0.3,0,0.5,0.2,0.5,0.5v0.1c0,0.3-0.2,0.5-0.5,0.5H12.1c-0.3,0-0.5-0.2-0.5-0.5V5.1
			C11.6,4.9,11.8,4.7,12.1,4.7z"/>
		<path class="st10" d="M12.1,7.8h11.7c0.3,0,0.5,0.2,0.5,0.5v0.1c0,0.3-0.2,0.5-0.5,0.5H12.1c-0.3,0-0.5-0.2-0.5-0.5V8.2
			C11.6,8,11.8,7.8,12.1,7.8z"/>
		<path class="st10" d="M0.5,14.7h23.2c0.3,0,0.5,0.2,0.5,0.5v0.1c0,0.3-0.2,0.5-0.5,0.5H0.5c-0.3,0-0.5-0.2-0.5-0.5v-0.1
			C0,14.9,0.2,14.7,0.5,14.7z"/>
		<path class="st10" d="M0.5,45.1h23.2c0.3,0,0.5,0.2,0.5,0.5v0.1c0,0.3-0.2,0.5-0.5,0.5H0.5c-0.3,0-0.5-0.2-0.5-0.5v-0.1
			C0,45.4,0.2,45.1,0.5,45.1z"/>
		<g transform="translate(1.27)" class="st4">
			
				<linearGradient id="SVGID_4_" gradientUnits="userSpaceOnUse" x1="-294.8146" y1="234.4266" x2="-293.8146" y2="234.4266" gradientTransform="matrix(7.647 0 0 -8.978 2254.4475 2109.1711)">
				<stop  offset="0" style="stop-color:#FF5500"/>
				<stop  offset="0.4099" style="stop-color:#FF5500"/>
				<stop  offset="0.582" style="stop-color:#FF2000"/>
				<stop  offset="1" style="stop-color:#FF2000"/>
			</linearGradient>
			<path class="st11" d="M7.4,2.2l0.2-0.5c0,0-0.3-0.3-0.6-0.6C6.7,0.7,6,0.9,6,0.9L5.2,0H2.4L1.7,0.9c0,0-0.7-0.2-1,0.1
				C0.3,1.4,0.1,1.6,0.1,1.6l0.2,0.5L0,2.9c0,0,0.8,3,0.9,3.3c0.2,0.7,0.3,1,0.8,1.4c0.5,0.4,1.5,1,1.6,1.1C3.5,8.8,3.7,9,3.8,9
				s0.4-0.2,0.5-0.3C4.5,8.6,5.4,8,5.9,7.6C6.5,7.3,6.6,7,6.8,6.3c0.1-0.4,0.9-3.3,0.9-3.3L7.4,2.2L7.4,2.2z"/>
			<path class="st6" d="M5.8,1.5c0,0,1,1.2,1,1.5c0,0.3-0.1,0.3-0.3,0.5L5.8,4.2C5.7,4.3,5.5,4.4,5.6,4.6c0.1,0.2,0.2,0.5,0.1,0.7
				C5.6,5.6,5.3,5.8,5.2,5.8C5,5.7,4.6,5.5,4.5,5.4C4.4,5.4,3.9,5,3.9,4.9c0-0.1,0.4-0.4,0.5-0.4c0.1-0.1,0.5-0.3,0.5-0.4
				c0-0.1,0-0.1-0.1-0.3C4.7,3.5,4.5,3.3,4.5,3.1c0-0.2,0.4-0.3,0.6-0.4s0.7-0.3,0.7-0.3c0.1,0,0,0-0.1-0.1c-0.2,0-0.6-0.1-0.9,0
				C4.6,2.4,4.3,2.5,4.3,2.6c0,0-0.1,0,0,0.2c0,0.2,0.2,1,0.2,1.1c0,0.1,0,0.2-0.1,0.3c-0.2,0-0.4,0.1-0.5,0.1
				c-0.1,0-0.3-0.1-0.5-0.1C3.2,4.1,3.2,4,3.2,3.9c0-0.1,0.2-0.9,0.2-1.1c0-0.2,0-0.2,0-0.2c0,0-0.4-0.1-0.6-0.2
				c-0.2-0.1-0.7,0-0.9,0c-0.2,0-0.2,0-0.1,0.1c0.1,0,0.5,0.2,0.7,0.3s0.6,0.2,0.6,0.4c0,0.2-0.2,0.5-0.3,0.7C2.7,4,2.7,4,2.7,4.1
				c0,0.1,0.4,0.3,0.5,0.4c0.1,0.1,0.5,0.3,0.5,0.4c0,0.1-0.4,0.5-0.6,0.6C3,5.5,2.6,5.7,2.5,5.8S2.1,5.6,1.9,5.3
				C1.8,5.1,1.9,4.8,2,4.6C2.1,4.4,2,4.3,1.9,4.2L1.1,3.4C1,3.3,0.9,3.2,0.9,2.9s1-1.5,1-1.5s0.8,0.2,1,0.2s0.4-0.1,0.6-0.2
				c0.2-0.1,0.4-0.1,0.4-0.1s0.2,0,0.4,0.1c0.2,0.1,0.5,0.2,0.6,0.2S5.8,1.5,5.8,1.5L5.8,1.5z M5,6.1c0.1,0,0,0.1,0,0.2
				S4.2,6.9,4.1,7C4,7,3.9,7.1,3.8,7.1S3.6,7,3.6,7C3.3,6.7,3,6.5,2.7,6.3c-0.1,0-0.1-0.1,0-0.2c0.1,0,0.3-0.1,0.5-0.3
				c0.3-0.1,0.6-0.3,0.7-0.3c0.1,0,0.4,0.1,0.7,0.3C4.7,6,4.9,6.1,5,6.1z"/>
			<g class="st7">
				
					<linearGradient id="f_1_" gradientUnits="userSpaceOnUse" x1="-287.367" y1="136.1339" x2="-286.3885" y2="136.1339" gradientTransform="matrix(6.346 0 0 -1.618 1824.4172 221.0736)">
					<stop  offset="0" style="stop-color:#FF452A"/>
					<stop  offset="1" style="stop-color:#FF2000"/>
				</linearGradient>
				<path id="f" class="st12" d="M6,0.9L5.2,0H2.4L1.7,0.9c0,0-0.7-0.2-1,0.1c0,0,0.9-0.1,1.2,0.4c0,0,0.9,0.2,1,0.2
					s0.4-0.1,0.6-0.2c0.2-0.1,0.4-0.1,0.4-0.1s0.2,0,0.4,0.1c0.2,0.1,0.5,0.2,0.6,0.2s1-0.2,1-0.2C6.1,0.9,7,1,7,1
					C6.7,0.7,6,0.9,6,0.9"/>
			</g>
		</g>
	</g>
</g>
<text transform="matrix(1 0 0 1 4.5 18.819)" class="st13 st14">1-VN</text>
<text transform="matrix(1 0 0 1 47.692 34.035)" class="st13 st15">1-VN</text>
</svg>
