<svg id="Layer_1" data-name="Layer 1" xmlns="http://www.w3.org/2000/svg" xmlns:xlink="http://www.w3.org/1999/xlink" viewBox="0 0 100 129"><defs><style>.cls-1{fill:url(#linear-gradient);}.cls-2{fill:url(#New_Gradient_Swatch_55);}.cls-3{fill:url(#New_Gradient_Swatch_55-2);}.cls-4{fill:url(#New_Gradient_Swatch_55-3);}.cls-5{fill:url(#New_Gradient_Swatch_55-4);}.cls-6{fill:url(#New_Gradient_Swatch_3);}.cls-7{fill:url(#linear-gradient-2);}.cls-8{fill:url(#linear-gradient-3);}.cls-9{fill:url(#linear-gradient-4);}.cls-10{fill:url(#linear-gradient-5);}.cls-11{fill:url(#New_Gradient_Swatch_3-2);}.cls-12{fill:url(#New_Gradient_Swatch_3-3);}.cls-13{fill:url(#New_Gradient_Swatch_3-4);}.cls-14{fill:url(#linear-gradient-6);}.cls-15{fill:url(#linear-gradient-7);}.cls-16{fill:url(#linear-gradient-8);}.cls-17{fill:url(#New_Gradient_Swatch_3-5);}.cls-18{fill:url(#New_Gradient_Swatch_3-6);}.cls-19{fill:url(#New_Gradient_Swatch_3-7);}.cls-20{fill:url(#New_Gradient_Swatch_3-8);}.cls-21{fill:url(#New_Gradient_Swatch_88);}.cls-22{fill:url(#radial-gradient);}.cls-23{fill:url(#radial-gradient-2);}.cls-24{fill:url(#New_Gradient_Swatch_88-2);}.cls-25{fill:url(#radial-gradient-3);}.cls-26{fill:url(#New_Gradient_Swatch_88-3);}.cls-27{fill:url(#New_Gradient_Swatch_88-4);}.cls-28{fill:url(#New_Gradient_Swatch_3-9);}.cls-29{fill:url(#New_Gradient_Swatch_3-10);}.cls-30{fill:url(#linear-gradient-9);}.cls-31{mask:url(#mask);}.cls-32{fill:#fff;opacity:0.45;}.cls-33{fill:url(#New_Gradient_Swatch_88-5);}</style><linearGradient id="linear-gradient" x1="57.96" y1="72.28" x2="42.69" y2="41.99" gradientUnits="userSpaceOnUse"><stop offset="0" stop-color="#fff"/><stop offset="0.01" stop-color="#f6f6f6"/><stop offset="0.05" stop-color="#c8c8c8"/><stop offset="0.09" stop-color="#9d9d9d"/><stop offset="0.14" stop-color="#777"/><stop offset="0.2" stop-color="#575757"/><stop offset="0.25" stop-color="#3b3b3b"/><stop offset="0.32" stop-color="#252525"/><stop offset="0.4" stop-color="#141414"/><stop offset="0.49" stop-color="#090909"/><stop offset="0.63" stop-color="#020202"/><stop offset="1"/></linearGradient><radialGradient id="New_Gradient_Swatch_55" cx="19.44" cy="90.37" r="21.53" gradientTransform="translate(5 6.4) scale(0.9 0.9)" gradientUnits="userSpaceOnUse"><stop offset="0" stop-color="#1799c4"/><stop offset="0.09" stop-color="#1890bd"/><stop offset="0.7" stop-color="#1c5991"/><stop offset="1" stop-color="#1e4480"/></radialGradient><radialGradient id="New_Gradient_Swatch_55-2" cx="23.44" cy="37.63" r="23.44" xlink:href="#New_Gradient_Swatch_55"/><radialGradient id="New_Gradient_Swatch_55-3" cx="81.51" cy="90.37" r="21.11" xlink:href="#New_Gradient_Swatch_55"/><radialGradient id="New_Gradient_Swatch_55-4" cx="81.51" cy="37.63" r="21.11" xlink:href="#New_Gradient_Swatch_55"/><linearGradient id="New_Gradient_Swatch_3" x1="42.91" y1="84.21" x2="10.69" y2="41.96" gradientUnits="userSpaceOnUse"><stop offset="0" stop-color="#04bfff"/><stop offset="0.06" stop-color="#04aeec"/><stop offset="0.24" stop-color="#0481b8"/><stop offset="0.41" stop-color="#045c8c"/><stop offset="0.57" stop-color="#043f6b"/><stop offset="0.73" stop-color="#042a53"/><stop offset="0.88" stop-color="#041d44"/><stop offset="1" stop-color="#04193f"/></linearGradient><linearGradient id="linear-gradient-2" x1="71.2" y1="59.08" x2="79.11" y2="96.93" gradientUnits="userSpaceOnUse"><stop offset="0" stop-color="#fff000"/><stop offset="0.08" stop-color="#ffdc01"/><stop offset="0.23" stop-color="#ffbe03"/><stop offset="0.39" stop-color="#ffa705"/><stop offset="0.56" stop-color="#ff9706"/><stop offset="0.75" stop-color="#ff8d07"/><stop offset="1" stop-color="#ff8a07"/></linearGradient><linearGradient id="linear-gradient-3" x1="16.9" y1="70.83" x2="85.96" y2="88.34" xlink:href="#linear-gradient-2"/><linearGradient id="linear-gradient-4" x1="71.35" y1="47.94" x2="77.69" y2="50.69" xlink:href="#linear-gradient-2"/><linearGradient id="linear-gradient-5" x1="77.22" y1="55.17" x2="81.39" y2="63.85" xlink:href="#linear-gradient-2"/><linearGradient id="New_Gradient_Swatch_3-2" x1="55.17" y1="50.21" x2="53.58" y2="49.54" xlink:href="#New_Gradient_Swatch_3"/><linearGradient id="New_Gradient_Swatch_3-3" x1="71.74" y1="46.92" x2="69.85" y2="64.26" xlink:href="#New_Gradient_Swatch_3"/><linearGradient id="New_Gradient_Swatch_3-4" x1="78.79" y1="82.46" x2="48.31" y2="49.44" xlink:href="#New_Gradient_Swatch_3"/><linearGradient id="linear-gradient-6" x1="26.96" y1="40.74" x2="111.42" y2="50.63" xlink:href="#linear-gradient-2"/><linearGradient id="linear-gradient-7" x1="23.45" y1="45.84" x2="35.71" y2="49.26" xlink:href="#linear-gradient-2"/><linearGradient id="linear-gradient-8" x1="83.5" y1="25.51" x2="-22.4" y2="85.61" xlink:href="#linear-gradient-2"/><linearGradient id="New_Gradient_Swatch_3-5" x1="39.63" y1="54.33" x2="22.51" y2="54.03" xlink:href="#New_Gradient_Swatch_3"/><linearGradient id="New_Gradient_Swatch_3-6" x1="38.29" y1="72.17" x2="55.01" y2="36.4" xlink:href="#New_Gradient_Swatch_3"/><linearGradient id="New_Gradient_Swatch_3-7" x1="62.07" y1="36.79" x2="59.21" y2="100.34" xlink:href="#New_Gradient_Swatch_3"/><linearGradient id="New_Gradient_Swatch_3-8" x1="41.86" y1="82.82" x2="60.69" y2="30.79" xlink:href="#New_Gradient_Swatch_3"/><radialGradient id="New_Gradient_Swatch_88" cx="37.53" cy="5.01" r="73.45" gradientTransform="translate(-0.35 60.14) scale(0.75 0.75)" gradientUnits="userSpaceOnUse"><stop offset="0.01" stop-color="#fff"/><stop offset="0.16" stop-color="#04bfff"/><stop offset="0.2" stop-color="#04aeec"/><stop offset="0.32" stop-color="#0481b8"/><stop offset="0.43" stop-color="#045c8c"/><stop offset="0.54" stop-color="#043f6b"/><stop offset="0.65" stop-color="#042a53"/><stop offset="0.74" stop-color="#041d44"/><stop offset="0.82" stop-color="#04193f"/></radialGradient><radialGradient id="radial-gradient" cx="108.08" cy="9.34" r="36.21" gradientTransform="translate(-0.35 60.14) scale(0.75 0.75)" gradientUnits="userSpaceOnUse"><stop offset="0.01" stop-color="#fff"/><stop offset="0.23" stop-color="#fff000"/><stop offset="0.27" stop-color="#ffdc01"/><stop offset="0.35" stop-color="#ffbe03"/><stop offset="0.43" stop-color="#ffa705"/><stop offset="0.53" stop-color="#ff9706"/><stop offset="0.63" stop-color="#ff8d07"/><stop offset="0.76" stop-color="#ff8a07"/></radialGradient><radialGradient id="radial-gradient-2" cx="48.51" cy="34.29" r="68.09" xlink:href="#radial-gradient"/><radialGradient id="New_Gradient_Swatch_88-2" cx="89.22" cy="8.91" r="31.72" xlink:href="#New_Gradient_Swatch_88"/><radialGradient id="radial-gradient-3" cx="71.34" cy="-32.3" r="48.69" xlink:href="#radial-gradient"/><radialGradient id="New_Gradient_Swatch_88-3" cx="44.4" cy="-9.8" r="20.28" xlink:href="#New_Gradient_Swatch_88"/><radialGradient id="New_Gradient_Swatch_88-4" cx="66.56" cy="3.82" r="58.41" xlink:href="#New_Gradient_Swatch_88"/><linearGradient id="New_Gradient_Swatch_3-9" x1="51.71" y1="79.81" x2="33.06" y2="79.16" xlink:href="#New_Gradient_Swatch_3"/><linearGradient id="New_Gradient_Swatch_3-10" x1="37.64" y1="35.69" x2="34.78" y2="99.23" xlink:href="#New_Gradient_Swatch_3"/><linearGradient id="linear-gradient-9" x1="94.68" y1="45.19" x2="-11.23" y2="105.3" xlink:href="#linear-gradient-2"/><mask id="mask" x="17.26" y="33.08" width="66.34" height="59.9" maskUnits="userSpaceOnUse"><path class="cls-1" d="M33,40.69a23.36,23.36,0,0,1,5.09-3,25.63,25.63,0,0,1,5.83-1.65,27.9,27.9,0,0,1,6.37-.26,30.4,30.4,0,0,1,6.41,1.12,33.49,33.49,0,0,1,5.94,2.34,34.94,34.94,0,0,1,10,7.66L76,47.1a37.92,37.92,0,0,0-5.27-5.33,38.58,38.58,0,0,0-6.21-4.22,36.33,36.33,0,0,0-7-2.94,35,35,0,0,0-7.59-1.44,32.19,32.19,0,0,0-7.59.33,28.28,28.28,0,0,0-6.89,2.09,25.79,25.79,0,0,0-6,3.76,24.41,24.41,0,0,0-4.69,5.34l4.07.19A22.25,22.25,0,0,1,33,40.69ZM20.93,56.22c0,.31-.05.63-.06,1s0,.64,0,1,0,.65,0,1,0,.65,0,1q.07,1.35.27,2.67a28.22,28.22,0,0,0,4.79,4.44,28.25,28.25,0,0,1-1.19-4.88ZM73.1,48.77,70.86,63.33,62.15,50.75c-.14-.22-.29-.41-.43-.6l-.44-.53c-.16-.16-.3-.31-.46-.45a5.58,5.58,0,0,0-.46-.39,2.8,2.8,0,0,0-.5-.31,4.39,4.39,0,0,0-.58-.24,5.65,5.65,0,0,0-.65-.15c-.23,0-.47-.06-.73-.07a5.65,5.65,0,0,0-.72,0,3.83,3.83,0,0,0-.62.1,2.35,2.35,0,0,0-.51.19,1.78,1.78,0,0,0-.42.27,4,4,0,0,0-.35.36,4.73,4.73,0,0,0-.31.43c-.1.16-.2.33-.29.51s-.17.37-.25.58L45.31,73.77c.63,0,1.26,0,1.89,0a39.23,39.23,0,0,0,5.25-.35l6.48-18,8.66,12.38a25.48,25.48,0,0,0,9.75-11.89L78.23,49Zm-19,.63a4.34,4.34,0,0,1,.33-.56,4.21,4.21,0,0,1,.35-.48,5,5,0,0,1,.39-.4,1.84,1.84,0,0,1,.22-.17l.24-.15.26-.12.29-.1,1-2.41-6.36-.32L39.86,70.44l-11.48-18,8.68.27,2.54-5.33-22.34-1L32.79,71a37.53,37.53,0,0,0,11.66,2.69L53.79,50C53.88,49.81,54,49.6,54.07,49.4Z"/></mask><radialGradient id="New_Gradient_Swatch_88-5" cx="95.98" cy="-6.5" r="28.21" xlink:href="#New_Gradient_Swatch_88"/></defs><title>1-VN_100x129</title><g id="Nhom_Logo" data-name="Nhom Logo"><g id="Number_One_Back" data-name="Number One Back"><path class="cls-2" d="M23.2,104.52h8.33q5.53,0,7-1.19T40,96.66v-30H5v42.19H23.2Z"/><path class="cls-3" d="M40,40.56c0-3.46-.47-5.67-1.43-6.63s-3.3-1.43-7-1.43H22.14V25.1a90.64,90.64,0,0,0,21.25-2.77c1.35-.37,2.61-.78,3.79-1.23V19.17H5V61.36H40Z"/><path class="cls-4" d="M61.71,96.66q0,5.27,1.4,6.56c.93.87,3.25,1.3,6.93,1.3H78.1v4.31H95V66.64H61.71Z"/><rect class="cls-5" x="61.71" y="19.17" width="33.29" height="42.18"/></g><g id="VN_Circle" data-name="VN Circle"><path class="cls-6" d="M42.26,78.34c-.16,0-.32.1-.5.14l-.56.08a3.91,3.91,0,0,1-.61,0,6.31,6.31,0,0,1-.88,0,4.81,4.81,0,0,1-.79-.14,4,4,0,0,1-.69-.24,3.21,3.21,0,0,1-.59-.36,5.29,5.29,0,0,1-.53-.45c-.17-.16-.34-.34-.51-.53a8,8,0,0,1-.5-.62c-.16-.23-.32-.46-.48-.71L17.26,46.37l-.86,3.68L34,78.17c.15.23.3.46.46.68s.31.41.47.59.33.36.5.52a4.15,4.15,0,0,0,.51.43,3.48,3.48,0,0,0,.56.34,4.39,4.39,0,0,0,.67.23,4.34,4.34,0,0,0,.75.13,5.88,5.88,0,0,0,.85,0l.59,0a4.34,4.34,0,0,0,.54-.09,3.36,3.36,0,0,0,.48-.13l.42-.18,1.93-2.52A3.38,3.38,0,0,1,42.26,78.34Z"/><path class="cls-7" d="M80,61c-.07-.3-.14-.6-.22-.9s-.15-.59-.24-.89-.17-.58-.26-.87-.19-.58-.3-.86l-3,2.93q.14.41.27.84c.09.28.18.56.25.84s.16.58.23.86.13.58.19.88a24.84,24.84,0,0,1,.51,6.7c0,.41-.06.82-.1,1.23a22.47,22.47,0,0,1-1.18,5.06,21,21,0,0,1-2.1,4.28c-.28.45-.58.89-.9,1.31A21.82,21.82,0,0,1,68.59,87h0l3-2.16a21.66,21.66,0,0,0,7.79-10.44,23.43,23.43,0,0,0,1.26-6.47A26.45,26.45,0,0,0,80,61Z"/><path class="cls-8" d="M72.64,88.45a25.13,25.13,0,0,1-3,1.72,26.88,26.88,0,0,1-2.91,1.2l-.43.15a26.45,26.45,0,0,1-3.18.84,3.89,3.89,0,0,1-.47.09,31.19,31.19,0,0,1-3.94.48,34.2,34.2,0,0,1-13.65-2.09,38.39,38.39,0,0,1-12-7.15,37.17,37.17,0,0,1-8.56-10.82,31.53,31.53,0,0,1-3.58-12.78c0-.33,0-.66,0-1s0-.66,0-1,0-.64,0-1,0-.64.06-1l-1,3.36c0,.3-.05.61-.06.91s0,.63,0,.94,0,.62,0,.94,0,.64,0,1a30.52,30.52,0,0,0,3.4,12.33,35.29,35.29,0,0,0,8.18,10.4A36.53,36.53,0,0,0,43,92.9a32.79,32.79,0,0,0,13.13,2,27.59,27.59,0,0,0,3.8-.47,28.06,28.06,0,0,0,3.53-.91l.83-.3a23.36,23.36,0,0,0,2.4-1,24.84,24.84,0,0,0,2.58-1.45l.35-.23,3-2Z"/><polygon class="cls-9" points="75.97 47.1 73.19 50.31 69.97 50.18 72.66 46.94 75.97 47.1"/><polygon class="cls-10" points="79.02 57.48 76.06 60.41 76.69 55.6 79.63 52.55 79.02 57.48"/><path class="cls-11" d="M55.86,47.52l-.26.12-.24.15a1.84,1.84,0,0,0-.22.17l-.2.19-.19.21a2.23,2.23,0,0,0-.19.24,2.2,2.2,0,0,0-.17.25l-2.16,3.33.18-.25a1.3,1.3,0,0,1,.18-.23l.18-.21.2-.19.21-.16.23-.15.26-.12.28-.1,2.2-3.35Z"/><polygon class="cls-12" points="70.86 63.33 68.08 66.15 70.39 51.96 73.1 48.77 70.86 63.33"/><polygon class="cls-13" points="74.53 77.73 71.51 80.11 56.59 58.55 58.93 55.43 74.53 77.73"/><path class="cls-14" d="M68,42.66a34.57,34.57,0,0,0-5.36-3.38,33.49,33.49,0,0,0-5.94-2.34,30.4,30.4,0,0,0-6.41-1.12,27.9,27.9,0,0,0-6.37.26,25.63,25.63,0,0,0-5.83,1.65,23.36,23.36,0,0,0-5.09,3,22.25,22.25,0,0,0-4.15,4.19l-1.27,3.63a22,22,0,0,1,4-4.11,22.64,22.64,0,0,1,4.94-2.92,24,24,0,0,1,5.65-1.66,26.69,26.69,0,0,1,6.17-.32,29.86,29.86,0,0,1,6.21,1,31.11,31.11,0,0,1,5.75,2.23A32.61,32.61,0,0,1,65.49,46,33.17,33.17,0,0,1,70,50.18l2.69-3.24A34.31,34.31,0,0,0,68,42.66Z"/><polygon class="cls-15" points="28.86 44.88 27.59 48.51 23.66 48.36 24.79 44.69 28.86 44.88"/><path class="cls-16" d="M50.3,35.82a27.9,27.9,0,0,0-6.37.26,25.63,25.63,0,0,0-5.83,1.65,23.36,23.36,0,0,0-5.09,3,22.25,22.25,0,0,0-4.15,4.19l-4.07-.19a24.41,24.41,0,0,1,4.69-5.34,25.79,25.79,0,0,1,6-3.76,28.28,28.28,0,0,1,6.89-2.09,32.19,32.19,0,0,1,7.59-.33,35,35,0,0,1,7.59,1.44,36.33,36.33,0,0,1,7,2.94,38.58,38.58,0,0,1,6.21,4.22A37.92,37.92,0,0,1,76,47.1l-3.31-.16a34.94,34.94,0,0,0-10-7.66,33.49,33.49,0,0,0-5.94-2.34A30.4,30.4,0,0,0,50.3,35.82Z"/><polygon class="cls-17" points="37.06 52.66 35.47 56.01 27.1 55.8 28.38 52.38 37.06 52.66"/><polygon class="cls-18" points="39.85 70.44 38.07 73.23 48.76 48.15 50.77 44.69 39.85 70.44"/><path class="cls-19" d="M73.1,48.77l5.13.22-3.7,28.74-15.6-22.3L50.72,78.28l-7.24.17,11-28c.08-.21.17-.4.25-.58s.19-.35.29-.51a4.73,4.73,0,0,1,.31-.43,4,4,0,0,1,.35-.36,1.78,1.78,0,0,1,.42-.27,2.35,2.35,0,0,1,.51-.19,3.83,3.83,0,0,1,.62-.1,5.65,5.65,0,0,1,.72,0c.26,0,.5,0,.73.07a5.65,5.65,0,0,1,.65.15,4.39,4.39,0,0,1,.58.24,2.8,2.8,0,0,1,.5.31,5.58,5.58,0,0,1,.46.39c.16.14.3.29.46.45l.44.53c.14.19.29.38.43.6l8.71,12.58Z"/><path class="cls-20" d="M52.82,52.64l-.15.25a2.15,2.15,0,0,0-.14.26c-.05.09-.09.19-.14.29l-.12.3L41.52,81l2-2.51,11-28c0-.11.09-.22.13-.31a2.75,2.75,0,0,1,.14-.3c0-.09.09-.18.14-.27a2.13,2.13,0,0,1,.16-.25Z"/><path class="cls-21" d="M39.42,78.58a5.88,5.88,0,0,0,.85,0,5.17,5.17,0,0,1-.57,0,6.17,6.17,0,0,1-.79-.14,4,4,0,0,1-.69-.25,3.82,3.82,0,0,1-.59-.35,5.29,5.29,0,0,1-.53-.45c-.17-.16-.34-.34-.51-.53s-.34-.41-.5-.63-.32-.45-.48-.7L17.25,46.38l-.08.33L35.33,75.53c.16.25.32.48.48.7s.33.43.49.63.35.37.52.53a4.36,4.36,0,0,0,.53.45,3.82,3.82,0,0,0,.59.35,4,4,0,0,0,.69.25A6.17,6.17,0,0,0,39.42,78.58Z"/><path class="cls-22" d="M80,61c-.07-.3-.14-.59-.22-.89s-.15-.59-.24-.89-.17-.58-.26-.87-.19-.58-.29-.86l-.27.26.21.61.27.9q.13.45.24.9c.08.3.15.61.22.91a26.71,26.71,0,0,1,.61,7A23.57,23.57,0,0,1,79,74.7a22.09,22.09,0,0,1-3.1,5.86c-.4.55-.83,1.07-1.28,1.58a21.78,21.78,0,0,0,4.73-7.77,23.43,23.43,0,0,0,1.26-6.47A26.53,26.53,0,0,0,80,61Z"/><path class="cls-23" d="M20.86,57.17c0-.31,0-.63.06-.94l-.38,1.24v0l0,1c0,.33,0,.65,0,1s0,.66,0,1A31.77,31.77,0,0,0,24.13,73.2,37.34,37.34,0,0,0,32.69,84a38.71,38.71,0,0,0,12.05,7.15,34.29,34.29,0,0,0,13.64,2.08,29.27,29.27,0,0,0,3.94-.47l.47-.09A28.47,28.47,0,0,0,66,91.84l.44-.14a29.89,29.89,0,0,0,2.9-1.2l1.21-.63,2.12-1.41h0a27.63,27.63,0,0,1-3,1.72,26.88,26.88,0,0,1-2.91,1.2l-.43.15a28.46,28.46,0,0,1-3.18.84l-.47.09a31.19,31.19,0,0,1-3.94.48,34.48,34.48,0,0,1-13.64-2.09A38.22,38.22,0,0,1,33,83.7a37.17,37.17,0,0,1-8.56-10.82A31.77,31.77,0,0,1,20.87,60.1c0-.33,0-.66,0-1s0-.65,0-1S20.84,57.49,20.86,57.17Z"/><polygon class="cls-24" points="74.37 77.86 74.52 77.74 58.92 55.43 58.8 55.59 74.37 77.86"/><path class="cls-25" d="M68,42.67a33.83,33.83,0,0,0-5.36-3.38A32,32,0,0,0,56.7,37a31.06,31.06,0,0,0-6.41-1.13,28.47,28.47,0,0,0-6.37.27,24.64,24.64,0,0,0-5.83,1.65,23,23,0,0,0-5.09,3A22.15,22.15,0,0,0,30.41,43a22.38,22.38,0,0,1,2.14-1.87,23.14,23.14,0,0,1,5.15-3,25.29,25.29,0,0,1,5.89-1.67A28.63,28.63,0,0,1,50,36.23a31.07,31.07,0,0,1,6.48,1.14,32.8,32.8,0,0,1,6,2.37A34.55,34.55,0,0,1,68,43.15a36,36,0,0,1,4.47,4.08l.23-.28A34.31,34.31,0,0,0,68,42.67Z"/><polygon class="cls-26" points="36.93 52.92 37.05 52.66 28.37 52.39 28.27 52.65 36.93 52.92"/><path class="cls-27" d="M54.19,50.55,43.07,79l.4-.52,11-28,.13-.31a2.59,2.59,0,0,1,.14-.29c0-.09.09-.18.14-.27a2.13,2.13,0,0,1,.16-.25Z"/><polygon class="cls-28" points="50.73 78.28 48.51 80.75 41.52 80.95 43.48 78.45 50.73 78.28"/><path class="cls-29" d="M55.14,48a5,5,0,0,0-.39.4,4.21,4.21,0,0,0-.35.48,4.34,4.34,0,0,0-.33.56c-.1.2-.19.41-.28.64L42.76,78l-.06.18a3.38,3.38,0,0,1-.44.18c-.16,0-.32.1-.5.14l-.56.08a3.91,3.91,0,0,1-.61,0,6.31,6.31,0,0,1-.88,0,4.81,4.81,0,0,1-.79-.14,4,4,0,0,1-.69-.24,3.21,3.21,0,0,1-.59-.36,5.29,5.29,0,0,1-.53-.45c-.17-.16-.34-.34-.51-.53a8,8,0,0,1-.5-.62c-.16-.23-.32-.46-.48-.71L17.26,46.37l22.34,1-2.54,5.33-8.68-.27,11.48,18L50.77,44.69l6.36.32-1,2.41-.29.1-.26.12-.24.15A1.84,1.84,0,0,0,55.14,48Z"/><path class="cls-30" d="M79.63,52.55c.36.66.69,1.33,1,2s.61,1.38.88,2.09.52,1.43.74,2.16.42,1.48.59,2.23a28.15,28.15,0,0,1,.34,11.19A24.47,24.47,0,0,1,70.82,89.56a28.25,28.25,0,0,1-12.11,3.37,34.2,34.2,0,0,1-13.65-2.09,38.39,38.39,0,0,1-12-7.15,37.17,37.17,0,0,1-8.56-10.82,31.53,31.53,0,0,1-3.58-12.78c0-.33,0-.66,0-1s0-.66,0-1,0-.64,0-1,0-.64.06-1l3.82,6.1A29.28,29.28,0,0,0,28.61,73a33.71,33.71,0,0,0,7.68,8.84,34.3,34.3,0,0,0,10.33,5.8,30.71,30.71,0,0,0,11.56,1.72A25.28,25.28,0,0,0,69,86.43,21.8,21.8,0,0,0,80.25,71.06,25.19,25.19,0,0,0,80,61c-.07-.3-.14-.6-.22-.9s-.15-.59-.24-.89-.17-.58-.26-.87-.19-.58-.3-.86Z"/><g class="cls-31"><path class="cls-32" d="M33,40.69a23.36,23.36,0,0,1,5.09-3,25.63,25.63,0,0,1,5.83-1.65,27.9,27.9,0,0,1,6.37-.26,30.4,30.4,0,0,1,6.41,1.12,33.49,33.49,0,0,1,5.94,2.34,34.94,34.94,0,0,1,10,7.66L76,47.1a37.92,37.92,0,0,0-5.27-5.33,38.58,38.58,0,0,0-6.21-4.22,36.33,36.33,0,0,0-7-2.94,35,35,0,0,0-7.59-1.44,32.19,32.19,0,0,0-7.59.33,28.28,28.28,0,0,0-6.89,2.09,25.79,25.79,0,0,0-6,3.76,24.41,24.41,0,0,0-4.69,5.34l4.07.19A22.25,22.25,0,0,1,33,40.69ZM70.86,63.33,62.15,50.75c-.14-.22-.29-.41-.43-.6l-.44-.53c-.16-.16-.3-.31-.46-.45a5.58,5.58,0,0,0-.46-.39,2.8,2.8,0,0,0-.5-.31,4.39,4.39,0,0,0-.58-.24,5.65,5.65,0,0,0-.65-.15c-.23,0-.47-.06-.73-.07a5.65,5.65,0,0,0-.72,0,3.83,3.83,0,0,0-.62.1,2.35,2.35,0,0,0-.51.19,1.78,1.78,0,0,0-.42.27,4,4,0,0,0-.35.36,4.73,4.73,0,0,0-.31.43c-.1.16-.2.33-.29.51s-.17.37-.25.58l-11,28,7.24-.17,8.21-22.85,15.6,22.3L78.23,49l-5.13-.22ZM36.1,76.23a8,8,0,0,0,.5.62c.17.19.34.37.51.53a5.29,5.29,0,0,0,.53.45,3.21,3.21,0,0,0,.59.36,4,4,0,0,0,.69.24,4.81,4.81,0,0,0,.79.14,6.31,6.31,0,0,0,.88,0,3.91,3.91,0,0,0,.61,0l.56-.08c.18,0,.34-.09.5-.14a3.38,3.38,0,0,0,.44-.18l.06-.18L53.79,50c.09-.23.18-.44.28-.64a4.34,4.34,0,0,1,.33-.56,4.21,4.21,0,0,1,.35-.48,5,5,0,0,1,.39-.4,1.84,1.84,0,0,1,.22-.17l.24-.15.26-.12.29-.1,1-2.41-6.36-.32L39.86,70.44l-11.48-18,8.68.27,2.54-5.33-22.34-1L35.62,75.52C35.78,75.77,35.94,76,36.1,76.23ZM82.85,61c-.17-.75-.37-1.5-.59-2.23s-.47-1.45-.74-2.16-.56-1.4-.88-2.09-.65-1.35-1-2L79,57.48c.11.28.2.57.3.86s.18.58.26.87.17.59.24.89.15.6.22.9a25.19,25.19,0,0,1,.21,10.06A21.8,21.8,0,0,1,69,86.43a25.28,25.28,0,0,1-10.81,2.89A30.71,30.71,0,0,1,46.62,87.6a34.3,34.3,0,0,1-10.33-5.8A33.71,33.71,0,0,1,28.61,73a29.28,29.28,0,0,1-3.86-10.64l-3.82-6.1c0,.31-.05.63-.06,1s0,.64,0,1,0,.65,0,1,0,.65,0,1a31.53,31.53,0,0,0,3.58,12.78A37.17,37.17,0,0,0,33,83.69a38.39,38.39,0,0,0,12,7.15,34.2,34.2,0,0,0,13.65,2.09,28.25,28.25,0,0,0,12.11-3.37A24.47,24.47,0,0,0,83.19,72.23,28.15,28.15,0,0,0,82.85,61Z"/></g><polygon class="cls-33" points="70.86 63.28 73.09 48.77 72.85 49.06 70.7 63.05 70.86 63.28"/></g></g></svg>